<?xml version="1.0" encoding="UTF-8" standalone="no"?>
<!-- Created with Inkscape (http://www.inkscape.org/) -->

<svg
   xmlns:dc="http://purl.org/dc/elements/1.1/"
   xmlns:cc="http://creativecommons.org/ns#"
   xmlns:rdf="http://www.w3.org/1999/02/22-rdf-syntax-ns#"
   xmlns:svg="http://www.w3.org/2000/svg"
   xmlns="http://www.w3.org/2000/svg"
   xmlns:sodipodi="http://sodipodi.sourceforge.net/DTD/sodipodi-0.dtd"
   xmlns:inkscape="http://www.inkscape.org/namespaces/inkscape"
   width="16"
   height="16"
   viewBox="0 0 16 16"
   id="svg2"
   version="1.1"
   inkscape:version="0.91 r13725"
   inkscape:export-filename="/home/djrm/Projects/godot/tools/editor/icons/icon_center_container.png"
   inkscape:export-xdpi="90"
   inkscape:export-ydpi="90"
   sodipodi:docname="icon_animated_grid_container.svg">
  <defs
     id="defs4" />
  <sodipodi:namedview
     id="base"
     pagecolor="#ffffff"
     bordercolor="#666666"
     borderopacity="1.0"
     inkscape:pageopacity="0.0"
     inkscape:pageshadow="2"
     inkscape:zoom="11.313709"
     inkscape:cx="-21.799326"
     inkscape:cy="13.112048"
     inkscape:document-units="px"
     inkscape:current-layer="layer1"
     showgrid="true"
     units="px"
     inkscape:snap-bbox="true"
     inkscape:bbox-paths="true"
     inkscape:bbox-nodes="true"
     inkscape:snap-bbox-edge-midpoints="true"
     inkscape:snap-bbox-midpoints="true"
     inkscape:snap-object-midpoints="true"
     inkscape:snap-center="true"
     inkscape:window-width="1600"
     inkscape:window-height="962"
     inkscape:window-x="1272"
     inkscape:window-y="-8"
     inkscape:window-maximized="1"
     inkscape:document-rotation="0"
     inkscape:object-nodes="true"
     inkscape:snap-grids="true"
     inkscape:snap-page="false"
     inkscape:snap-nodes="true">
    <inkscape:grid
       type="xygrid"
       id="grid3336"
       spacingx="0.5"
       spacingy="0.5" />
  </sodipodi:namedview>
  <metadata
     id="metadata7">
    <rdf:RDF>
      <cc:Work
         rdf:about="">
        <dc:format>image/svg+xml</dc:format>
        <dc:type
           rdf:resource="http://purl.org/dc/dcmitype/StillImage" />
        <dc:title />
      </cc:Work>
    </rdf:RDF>
  </metadata>
  <g
     inkscape:label="Layer 1"
     inkscape:groupmode="layer"
     id="layer1"
     transform="translate(0,-1036.3622)">
    <path
       style="opacity:1;fill:#a5efac;fill-opacity:1;stroke:none;stroke-width:2;stroke-linecap:round;stroke-linejoin:miter;stroke-miterlimit:4;stroke-dasharray:none;stroke-dashoffset:0;stroke-opacity:1"
       d="M 2.6666667,1039.6955 C 1.7461921,1039.6955 1,1040.4417 1,1041.3622 l 0,8.3333 c 0,0.9205 0.7461921,1.6667 1.6666667,1.6667 l 8.3333333,0 c 0.920474,0 1.666667,-0.7462 1.666667,-1.6667 l 0,-8.3333 c 0,-0.9205 -0.746193,-1.6667 -1.666667,-1.6667 l -8.3333333,0 z m 0,1.6667 1.6666666,0 0,1.6667 -1.6666666,0 0,-1.6667 z m 3.3333333,0 1.6666667,0 0,1.6667 -1.6666667,0 0,-1.6667 z m 3.3333333,0 1.6666667,0 0,1.6667 -1.6666667,0 0,-1.6667 z m -6.6666666,3.3333 1.6666666,0 0,1.6667 -1.6666666,0 0,-1.6667 z m 3.3333333,0 1.6666667,0 0,1.6667 -1.6666667,0 0,-1.6667 z m 3.3333333,0 1.6666667,0 0,1.6667 -1.6666667,0 0,-1.6667 z m -6.6666666,3.3334 1.6666666,0 0,1.6666 -1.6666666,0 0,-1.6666 z m 3.3333333,0 1.6666667,0 0,1.6666 -1.6666667,0 0,-1.6666 z m 3.3333333,0 1.6666667,0 0,1.6666 -1.6666667,0 0,-1.6666 z"
       id="rect4140"
       inkscape:connector-curvature="0" />
    <path
       style="opacity:1;fill:#a5efac;fill-opacity:0.58823529;stroke:none;stroke-width:4;stroke-linecap:round;stroke-linejoin:round;stroke-miterlimit:4;stroke-dasharray:8, 16;stroke-dashoffset:38;stroke-opacity:1"
       d="M 4.3339844 1.6660156 C 3.4135098 1.6660156 2.6660156 2.4134844 2.6660156 3.3339844 L 11 3.3339844 C 11.920474 3.3339844 12.666016 4.0795 12.666016 5 L 12.666016 13.333984 C 13.58649 13.333984 14.333984 12.586516 14.333984 11.666016 L 14.333984 3.3339844 C 14.333984 2.4134844 13.58649 1.6660156 12.666016 1.6660156 L 4.3339844 1.6660156 z "
       transform="translate(0,1036.3622)"
       id="path4159" />
    <path
       id="path4172"
       d="m 6.0000008,1036.3622 c -0.9204746,0 -1.6679688,0.7475 -1.6679688,1.668 l 8.333984,0 c 0.920474,0 1.666016,0.7455 1.666016,1.666 l 0,8.334 c 0.920474,0 1.667968,-0.7475 1.667968,-1.668 l 0,-8.332 c 0,-0.9205 -0.747494,-1.668 -1.667968,-1.668 l -8.3320312,0 z"
       style="opacity:1;fill:#a5efac;fill-opacity:0.39215687;stroke:none;stroke-width:4;stroke-linecap:round;stroke-linejoin:round;stroke-miterlimit:4;stroke-dasharray:8, 16;stroke-dashoffset:38;stroke-opacity:1"
       inkscape:connector-curvature="0" />
  </g>
</svg>
